<svg id="sspl_circle" xmlns="http://www.w3.org/2000/svg" viewBox="0 0 51.719 52.268" preserveAspectRatio="xMinYMin slice" role="img" aria-describedby="sspl-logotype-title">
	<title id="sspl-logotype-title">Saratoga Springs Public Library</title>
	<defs>
		<mask id="logo-mask">
			<circle id="mask-circle" cx="26" cy="26" r="26" fill="#ffffff"/>
			<g id="mask-BookPages">
				<path d="M13.611 30.669H30.12v3.575H13.611z" fill="#000000"/>
				<path d="M31.908 32.457a1.787 1.787 0 1 0-3.575 0 1.787 1.787 0 1 0 3.575 0zM15.312 24.523h16.42v3.615h-16.42z" fill="#000000"/>
				<path d="M13.573 26.332c0 1.001.81 1.81 1.811 1.81a1.808 1.808 0 1 0 0-3.62c-1.002 0-1.81.81-1.81 1.81zM38.196 20.546l-6.481 7.592v-3.615l6.481-6.91z" fill="#000000"/>
				<path d="M31.652 24.523h.143v3.528h-.143z"/>
			</g>
			<g id="mask-BookCover">
				<path d="M15.312 28.862h17.264v1.084H15.312zM14.782 22.805h16.95v1.076h-16.95z" fill="#000000"/>
				<path d="M38.672 20.554l-7.019 8.388.368 1.7c.461.476.77 1.18.77 1.895 0 .401-.104.82-.262 1.162l.565.787 7.482-10.71-1.904-3.222zM24.067 15.588h14.611v.811H24.067z" fill="#000000"/>
				<path d="M24.055 15.588l14.624.804-6.948 7.473-18.691-.28zM12.848 34.967h17.294v1.125H12.848z" fill="#000000"/>
				<path d="M30.12 28.862c-1.009 0-1.925.307-2.594.962l2.594.122c1.463 0 2.52 1.049 2.52 2.51 0 1.463-1.19 2.511-2.655 2.511l-2.589.07c.668.654 1.676 1.055 2.685 1.055 2.048 0 3.62-1.588 3.62-3.635s-1.534-3.595-3.58-3.595zM15.312 29.946c1.008 0 1.93-.347 2.598-1l-2.598-.084c-1.463 0-2.49-1.218-2.49-2.68 0-1.463 1.324-2.368 2.787-2.368l2.384-.016c-.668-.654-1.375-1.043-2.384-1.043-2.047 0-3.846 1.378-3.846 3.427s1.501 3.764 3.549 3.764zM38.77 20.551c-.038 0-.07.01-.106.01l-1.99 2.374a2.114 2.114 0 0 0 4.214-.263 2.12 2.12 0 0 0-2.118-2.12z" fill="#000000"/>
			</g>
		</mask>
	</defs>
	<g id="sspl-circle-logo">
		<g id="CircleText">
			<circle cx="25.825" cy="25.942" r="23" fill="none"/>
			<path id="text-public_library" fill="#639A43" d="M2.778 36.138l3.811-1.981.642 1.234c.244.468.383.783.418.945.057.248.028.496-.087.743-.115.247-.324.449-.627.606-.234.122-.453.182-.657.18s-.384-.045-.544-.128a1.258 1.258 0 0 1-.388-.306 4.958 4.958 0 0 1-.469-.77l-.26-.501-1.438.747-.4-.769zm3.567-.877l-1.082.563.219.42c.158.303.283.496.376.578a.58.58 0 0 0 .312.143.578.578 0 0 0 .342-.067.554.554 0 0 0 .28-.3.602.602 0 0 0 .008-.398c-.031-.1-.118-.29-.262-.567l-.193-.372zM8.434 37.582l.54.677-1.818 1.45c-.288.23-.468.39-.54.474a.694.694 0 0 0-.166.47c.004.177.081.36.233.549.153.192.308.305.464.34s.3.017.431-.054c.13-.072.328-.214.594-.426l1.857-1.481.54.677-1.762 1.408c-.403.32-.703.53-.898.626-.196.096-.39.14-.583.133a1.309 1.309 0 0 1-.59-.176c-.199-.11-.404-.3-.616-.565-.256-.32-.413-.593-.472-.817a1.336 1.336 0 0 1-.024-.623c.041-.192.115-.354.22-.488.157-.198.424-.446.8-.746l1.79-1.428zM11.118 40.824l1.316 1.102c.26.219.446.392.556.52.11.13.186.271.23.425a1.1 1.1 0 0 1 .021.487.97.97 0 0 1-.221.47 1.013 1.013 0 0 1-1.061.326c.151.226.222.455.212.686-.01.232-.095.442-.254.632-.125.15-.282.266-.47.35-.189.083-.378.116-.57.1s-.383-.09-.576-.218c-.12-.08-.395-.297-.82-.65l-1.121-.938 2.758-3.292zm-.89 2.414l-.739.88.615.515c.24.201.397.322.473.363.114.064.231.087.352.07s.23-.084.327-.201a.562.562 0 0 0 .139-.312.529.529 0 0 0-.082-.324c-.064-.107-.247-.288-.55-.541l-.536-.45zm1.096-1.31l-.638.762.436.365c.258.217.422.348.492.394.125.08.247.117.367.106s.224-.07.313-.175a.474.474 0 0 0 .124-.319.498.498 0 0 0-.154-.325 9.945 9.945 0 0 0-.558-.487l-.382-.32zM12.34 47.216l2.084-3.715.757.425-1.73 3.084 1.88 1.055-.354.63-2.637-1.479zM16.068 49.13l1.6-3.985.805.323-1.6 3.986-.805-.324zM21.28 49.095l.754.456c-.235.426-.525.714-.87.866s-.74.172-1.189.064c-.554-.133-.964-.433-1.23-.898-.266-.464-.32-1.025-.162-1.682.168-.694.478-1.192.929-1.49.451-.297.97-.376 1.554-.236.511.123.89.374 1.136.753.147.225.228.515.242.872l-.882-.002c.002-.228-.06-.423-.186-.587s-.302-.271-.526-.325c-.31-.075-.587-.024-.833.152s-.43.512-.55 1.01c-.127.528-.122.926.013 1.196a.95.95 0 0 0 .66.514c.224.055.434.03.63-.074.195-.103.365-.3.51-.589zM25.344 51.123l-.149-4.258.867-.03.124 3.534 2.154-.076.025.724-3.021.106zM29.507 50.826l-.695-4.239.856-.14.695 4.238-.856.14zM30.503 46.343l1.637-.52c.323-.103.569-.166.737-.19.167-.023.328-.012.48.034.154.045.294.126.423.242a.977.977 0 0 1 .279.44c.06.19.064.383.012.575a1.011 1.011 0 0 1-.305.494c.272-.006.503.056.693.189.19.132.321.316.396.553.06.186.075.38.043.585a1.14 1.14 0 0 1-.22.534c-.116.152-.28.276-.492.37-.133.059-.462.174-.989.345l-1.392.443-1.302-4.094zm1.043.42l.3.945.543-.171c.322-.103.52-.171.595-.205a.565.565 0 0 0 .287-.253.452.452 0 0 0 .02-.359.47.47 0 0 0-.202-.274.493.493 0 0 0-.358-.045c-.085.016-.32.087-.71.21l-.475.151zm.517 1.627l.35 1.094.764-.243c.298-.095.484-.163.558-.205.117-.062.199-.148.248-.26s.052-.238.006-.384a.567.567 0 0 0-.19-.284c-.085-.066-.192-.102-.317-.105s-.375.055-.75.174l-.669.213zM36.573 48.749L34.478 45l1.592-.89c.4-.225.711-.354.93-.388a.99.99 0 0 1 .637.115c.206.112.37.279.494.5.157.282.204.56.141.835s-.246.53-.547.761c.216.005.41.034.58.089s.428.177.772.367l.866.476-.905.506-1.003-.51c-.357-.183-.593-.292-.707-.328a.677.677 0 0 0-.315-.029c-.096.017-.23.074-.405.171l-.153.086.875 1.565-.757.423zm-.453-2.586l.56-.314c.364-.203.582-.345.655-.426a.474.474 0 0 0 .124-.277.559.559 0 0 0-.081-.324.516.516 0 0 0-.272-.25.531.531 0 0 0-.367.012 7.466 7.466 0 0 0-.56.297l-.59.33.531.952zM43.85 43.607l-.714.615-.921-.495-1.3 1.12.367.97-.697.601-1.535-4.345.695-.599 4.106 2.133zm-2.318-.246l-1.488-.821.6 1.585.888-.764zM44.643 42.713L41.25 40.08l1.12-1.443c.28-.362.516-.601.704-.719s.399-.165.631-.142.45.111.65.266c.254.199.407.436.457.715.05.279-.02.583-.208.914.202-.08.391-.13.569-.145.179-.017.463-.004.853.037l.984.1-.636.819-1.122-.078c-.4-.029-.66-.037-.78-.026a.652.652 0 0 0-.3.096 1.448 1.448 0 0 0-.307.316l-.107.138 1.416 1.1-.531.685zm-1.426-2.205l.392-.507c.256-.329.402-.544.437-.648a.46.46 0 0 0 .006-.303.556.556 0 0 0-.201-.267.511.511 0 0 0-.348-.123.532.532 0 0 0-.333.154 7.67 7.67 0 0 0-.4.491l-.415.534.862.67zM48.003 37.814l-1.607-.826-2.932.262.465-.905 1.973-.122-1.058-1.657.457-.889 1.495 2.545 1.602.823-.395.769z"/>
			<circle cx="25.825" cy="25.942" r="23" fill="none"/>
			<path id="text-saratoga_springs" fill="#639A43" d="M3.702 22.964l.098-.842c.287.01.513-.047.675-.17.163-.124.272-.315.327-.573.06-.273.046-.49-.04-.654a.53.53 0 0 0-.36-.296.395.395 0 0 0-.272.033.716.716 0 0 0-.248.266c-.056.092-.166.305-.33.639-.21.43-.418.719-.622.866a1.116 1.116 0 0 1-.928.204c-.214-.045-.4-.15-.56-.311a1.167 1.167 0 0 1-.313-.616 2.152 2.152 0 0 1 .033-.858c.114-.527.315-.898.604-1.114s.627-.29 1.015-.22l-.146.855c-.223-.01-.395.035-.516.134-.12.098-.206.267-.257.506-.053.246-.045.45.026.61a.313.313 0 0 0 .232.192c.1.021.193-.002.282-.071.113-.087.263-.327.45-.718.186-.392.352-.675.499-.85.147-.175.322-.3.526-.372.205-.072.44-.08.706-.023a1.267 1.267 0 0 1 .978 1.015c.049.266.034.582-.044.946-.115.531-.326.912-.633 1.144s-.7.324-1.182.278zM7.532 15.7l-.375.864-1.044-.043-.682 1.576.755.713-.366.844-3.277-3.242.364-.841 4.625.128zm-2.194.79l-1.697-.091 1.232 1.165.465-1.075zM7.739 15.415L4.22 12.952l1.047-1.495c.263-.376.486-.627.668-.753a.986.986 0 0 1 .624-.174c.233.011.454.09.662.235.264.185.427.415.49.69.064.276.01.584-.161.924.197-.09.384-.149.561-.174s.462-.026.855-.004l.987.05-.595.85-1.125-.022c-.401-.01-.661-.005-.78.012a.664.664 0 0 0-.295.111 1.43 1.43 0 0 0-.29.33l-.1.144 1.468 1.029-.497.71zm-1.533-2.132l.367-.526c.239-.34.373-.563.404-.668s.027-.206-.01-.303a.557.557 0 0 0-.213-.257c-.118-.083-.236-.118-.353-.106s-.226.07-.325.17a7.378 7.378 0 0 0-.375.511l-.388.554.893.625zM13.015 9.35l-.683.649-.944-.449-1.245 1.183.416.952-.667.633-1.747-4.265.665-.632 4.205 1.928zm-2.328-.132L9.16 8.47l.678 1.555.849-.807zM13.838 8.873l-1.993-2.96-1.057.712-.406-.603 2.83-1.907.407.603-1.055.71 1.994 2.96-.72.485zM14.913 5.615c-.172-.403-.256-.766-.252-1.09.004-.24.05-.473.137-.7.087-.225.206-.416.359-.573a2.35 2.35 0 0 1 .784-.52c.582-.248 1.125-.266 1.629-.054.503.213.892.64 1.166 1.283.272.638.312 1.21.119 1.72-.193.507-.58.885-1.16 1.132-.588.251-1.131.271-1.63.06-.5-.21-.884-.63-1.152-1.258zm.81-.378c.19.448.439.742.744.885.305.143.616.147.934.01s.53-.36.637-.676c.106-.317.061-.704-.134-1.162-.194-.453-.437-.748-.73-.886-.294-.138-.605-.137-.934.003-.328.14-.545.366-.65.677-.106.312-.06.695.133 1.15zM21.747 3.88l-.134-.71 1.837-.347.316 1.681c-.146.207-.376.408-.69.603s-.644.326-.992.391c-.441.084-.844.063-1.207-.06-.363-.124-.66-.342-.89-.655s-.383-.673-.459-1.078a2.48 2.48 0 0 1 .056-1.224c.12-.376.34-.689.661-.939.244-.19.568-.324.97-.4.525-.099.955-.066 1.29.099.337.164.584.432.741.803l-.816.318a.913.913 0 0 0-.428-.427 1.034 1.034 0 0 0-.649-.064c-.372.07-.646.244-.821.521s-.22.649-.132 1.113c.094.5.276.856.546 1.064s.585.28.946.211c.179-.033.351-.102.518-.206a1.87 1.87 0 0 0 .414-.342l-.101-.536-.976.184zM28.423 5.14l-.944-.02-.353-.983-1.717-.037-.375.968-.92-.02L25.878.79l.917.02 1.628 4.33zm-1.56-1.733l-.558-1.606-.614 1.581 1.172.025zM30.504 4.11l.832.164c-.033.286.006.515.117.687.11.171.292.295.545.37.268.08.486.085.655.012a.525.525 0 0 0 .323-.337.393.393 0 0 0-.011-.274c-.037-.085-.12-.174-.246-.267a10.395 10.395 0 0 0-.612-.379c-.412-.243-.684-.473-.815-.687a1.118 1.118 0 0 1-.132-.941c.064-.21.18-.388.355-.535s.385-.235.638-.263c.252-.03.536.004.853.099.516.154.871.384 1.064.688s.24.648.14 1.03l-.842-.212c.028-.223-.003-.397-.092-.525-.09-.127-.25-.226-.485-.296-.241-.072-.444-.08-.611-.021a.33.33 0 0 0-.16.503c.079.119.306.287.681.503.376.217.646.404.809.565.163.16.273.344.329.554.057.21.046.444-.031.704a1.263 1.263 0 0 1-1.088.896c-.27.029-.583-.01-.94-.117-.521-.156-.884-.396-1.092-.72-.206-.323-.268-.724-.184-1.2zM34.042 6.706l1.98-3.81 1.236.642c.468.243.763.42.885.532.188.17.306.39.354.659s-.007.553-.165.856c-.121.234-.266.41-.434.524s-.34.184-.52.207a1.26 1.26 0 0 1-.491-.026 4.939 4.939 0 0 1-.827-.36l-.501-.261-.748 1.437-.769-.4zm2.415-2.766l-.562 1.081.421.22c.303.157.516.242.64.256a.568.568 0 0 0 .58-.313.556.556 0 0 0 .055-.407.607.607 0 0 0-.222-.33 4.244 4.244 0 0 0-.54-.314l-.372-.193zM37.472 8.556L40.15 5.2l1.427 1.139c.359.286.596.524.71.714.114.19.16.402.134.634a1.231 1.231 0 0 1-.276.646c-.2.251-.44.4-.72.446s-.583-.027-.912-.22c.079.203.125.394.138.572.014.179-.003.463-.048.853l-.114.982-.81-.647.092-1.122c.035-.4.047-.659.038-.778s-.041-.22-.093-.302-.155-.186-.31-.31l-.138-.11-1.119 1.401-.677-.54zm2.223-1.396l.501.4c.325.26.54.408.643.445s.204.04.303.01c.1-.03.19-.097.27-.197a.517.517 0 0 0 .128-.346.534.534 0 0 0-.15-.335 7.263 7.263 0 0 0-.486-.407l-.529-.422-.68.852zM40.737 11.36l3.13-2.94.594.633-3.13 2.94-.594-.632zM41.914 12.566L45.43 10.1l.485.69-1.337 3.087 2.347-1.648.463.66-3.515 2.467-.5-.712 1.297-3.026-2.292 1.61-.463-.66zM46.507 17.241l.665-.284.733 1.72-1.573.67c-.233-.097-.478-.279-.737-.543a2.887 2.887 0 0 1-.596-.885c-.176-.413-.243-.81-.201-1.191.043-.381.192-.718.448-1.01a2.62 2.62 0 0 1 .954-.68c.411-.176.814-.246 1.207-.21s.746.184 1.059.443c.24.198.44.485.6.862.21.49.27.918.182 1.281a1.514 1.514 0 0 1-.626.896l-.486-.729a.904.904 0 0 0 .325-.51 1.032 1.032 0 0 0-.076-.647c-.15-.348-.378-.578-.687-.69-.308-.111-.68-.074-1.115.111-.469.2-.776.454-.922.763s-.146.631-.002.97c.071.166.176.32.313.46s.278.25.423.33l.501-.213-.39-.914zM47.275 19.743l.248.81c-.267.106-.45.249-.55.427-.099.179-.122.397-.07.656.056.273.156.468.3.583a.53.53 0 0 0 .448.126.388.388 0 0 0 .236-.14c.058-.072.098-.186.12-.342.014-.107.03-.346.046-.718.02-.478.094-.826.221-1.043.18-.306.436-.493.769-.56.214-.043.427-.023.639.06.21.084.388.23.533.439.143.209.248.475.314.798.108.529.073.95-.105 1.264s-.458.517-.842.609l-.21-.842c.21-.08.349-.19.419-.329.07-.14.081-.328.033-.567-.05-.247-.14-.43-.27-.55a.313.313 0 0 0-.288-.081.33.33 0 0 0-.23.178c-.07.125-.11.405-.123.838-.014.433-.053.76-.117.979s-.175.403-.333.552c-.158.149-.37.25-.637.304-.241.05-.48.028-.718-.064a1.219 1.219 0 0 1-.585-.473c-.152-.224-.265-.519-.34-.884-.108-.532-.068-.966.12-1.301.188-.335.512-.578.972-.73z"/>
			<g id="dots" fill="#639A43">
				<circle id="RDot" cx="48.825" cy="28.942" r="1"/>
				<circle id="LDot" cx="2.825" cy="28.942" r="1"/>
			</g>
		</g>
		<g id="Circle">
			<path id="OuterCircle" fill="#639A43" d="M25.826 8.192c9.787 0 17.75 7.962 17.75 17.75 0 9.787-7.963 17.75-17.75 17.75s-17.75-7.963-17.75-17.75c0-9.788 7.962-17.75 17.75-17.75m0-1.25c-10.494 0-19 8.507-19 19s8.506 19 19 19 19-8.507 19-19-8.507-19-19-19z"/>
			<circle id="InnerCircle" cx="25.825" cy="25.942" r="16.941" fill="#639A43"/>
		</g>
		<g id="Books" fill="#FFF">
			<g id="BookPages">
				<path d="M13.611 30.669H30.12v3.575H13.611z"/>
				<path d="M31.908 32.457a1.787 1.787 0 1 0-3.575 0 1.787 1.787 0 1 0 3.575 0zM15.312 24.523h16.42v3.615h-16.42z"/>
				<path d="M13.573 26.332c0 1.001.81 1.81 1.811 1.81a1.808 1.808 0 1 0 0-3.62c-1.002 0-1.81.81-1.81 1.81zM38.196 20.546l-6.481 7.592v-3.615l6.481-6.91z"/>
				<path d="M31.652 24.523h.143v3.528h-.143z"/>
			</g>
			<g id="BookCover">
				<path d="M15.312 28.862h17.264v1.084H15.312zM14.782 22.805h16.95v1.076h-16.95z"/>
				<path d="M38.672 20.554l-7.019 8.388.368 1.7c.461.476.77 1.18.77 1.895 0 .401-.104.82-.262 1.162l.565.787 7.482-10.71-1.904-3.222zM24.067 15.588h14.611v.811H24.067z"/>
				<path d="M24.055 15.588l14.624.804-6.948 7.473-18.691-.28zM12.848 34.967h17.294v1.125H12.848z"/>
				<path d="M30.12 28.862c-1.009 0-1.925.307-2.594.962l2.594.122c1.463 0 2.52 1.049 2.52 2.51 0 1.463-1.19 2.511-2.655 2.511l-2.589.07c.668.654 1.676 1.055 2.685 1.055 2.048 0 3.62-1.588 3.62-3.635s-1.534-3.595-3.58-3.595zM15.312 29.946c1.008 0 1.93-.347 2.598-1l-2.598-.084c-1.463 0-2.49-1.218-2.49-2.68 0-1.463 1.324-2.368 2.787-2.368l2.384-.016c-.668-.654-1.375-1.043-2.384-1.043-2.047 0-3.846 1.378-3.846 3.427s1.501 3.764 3.549 3.764zM38.77 20.551c-.038 0-.07.01-.106.01l-1.99 2.374a2.114 2.114 0 0 0 4.214-.263 2.12 2.12 0 0 0-2.118-2.12z"/>
			</g>
		</g>
	</g>
</svg>
